# xmcd
# Track frame offsets:
# 150
# 2507
# 23400
# 40202
# 56075
# 71737
# 88832
# 109017
# 126840
# 141352
# 154945
# 173547
# 188177
# 205640
# 220355
# 238270
# 259007
#
# Disc length: 3921 seconds
# Revision: 6
# Processed by: cddbd v1.4PL0 Copyright (c) Steve Scherf et al.
# Submitted via: VisiTrax 2.9.6.190 - For more info visit www.synapsa.com
#
DISCID=ed0f4f11
DTITLE=B2K - PANDEMONIUM
DYEAR=2002
DGENRE=R&B
TTITLE0=B2K - Intro
TTITLE1=B2K - P. Diddy - Bump, Bump, Bump
TTITLE2=B2K - Riddick, Makeba "Girl Wonder" - You Can Get It
TTITLE3=B2K - One Kiss
TTITLE4=B2K - My Girl
TTITLE5=B2K - Sleepin'
TTITLE6=B2K - Would You Be Here
TTITLE7=B2K - Everything
TTITLE8=B2K - Jhene - Romeo - Tease
TTITLE9=B2K - Back It Up
TTITLE10=B2K - Where Did We Go Wrong
TTITLE11=B2K - Pretty Young Thing
TTITLE12=B2K - I Beat You To It (Turn The Party Out)
TTITLE13=B2K - The Other Guy
TTITLE14=B2K - Why I Love You
TTITLE15=B2K - BOYS FOR LIFE
TTITLE16=B2K - Jhene - Lil Fizz - What U Get
EXTD=
EXTT0=
EXTT1=
EXTT2=
EXTT3=
EXTT4=
EXTT5=
EXTT6=
EXTT7=
EXTT8=
EXTT9=
EXTT10=
EXTT11=
EXTT12=
EXTT13=
EXTT14=
EXTT15=
EXTT16=
PLAYORDER=
